<mxfile host="app.diagrams.net" modified="2023-12-13T10:50:02.593Z" agent="Mozilla/5.0 (Windows NT 10.0; Win64; x64) AppleWebKit/537.36 (KHTML, like Gecko) Chrome/116.0.0.0 Safari/537.36" etag="Kk5xM4UxfIDdo4L0JvFJ" version="22.1.8" type="github">
  <diagram id="6a731a19-8d31-9384-78a2-239565b7b9f0" name="Page-1">
    <mxGraphModel dx="2100" dy="1911" grid="1" gridSize="10" guides="1" tooltips="1" connect="1" arrows="1" fold="1" page="1" pageScale="1" pageWidth="1169" pageHeight="827" background="none" math="0" shadow="0">
      <root>
        <mxCell id="0" />
        <mxCell id="1" parent="0" />
        <mxCell id="8WFRXQXyGOTTuvCbvxsJ-75" style="edgeStyle=orthogonalEdgeStyle;rounded=0;orthogonalLoop=1;jettySize=auto;html=1;exitX=0;exitY=0.5;exitDx=0;exitDy=0;entryX=0.5;entryY=0;entryDx=0;entryDy=0;" edge="1" parent="1" source="8WFRXQXyGOTTuvCbvxsJ-74" target="8WFRXQXyGOTTuvCbvxsJ-73">
          <mxGeometry relative="1" as="geometry" />
        </mxCell>
        <mxCell id="8WFRXQXyGOTTuvCbvxsJ-78" style="edgeStyle=orthogonalEdgeStyle;rounded=0;orthogonalLoop=1;jettySize=auto;html=1;exitX=0.5;exitY=1;exitDx=0;exitDy=0;entryX=0.5;entryY=0;entryDx=0;entryDy=0;" edge="1" parent="1" source="8WFRXQXyGOTTuvCbvxsJ-71" target="8WFRXQXyGOTTuvCbvxsJ-74">
          <mxGeometry relative="1" as="geometry">
            <Array as="points">
              <mxPoint x="670" y="-60" />
              <mxPoint x="1171" y="-60" />
            </Array>
          </mxGeometry>
        </mxCell>
        <mxCell id="8WFRXQXyGOTTuvCbvxsJ-71" value="&lt;font style=&quot;font-size: 20px;&quot;&gt;下游调用获取电影票接口&lt;/font&gt;" style="ellipse;whiteSpace=wrap;html=1;" vertex="1" parent="1">
          <mxGeometry x="550" y="-190" width="240" height="80" as="geometry" />
        </mxCell>
        <mxCell id="8WFRXQXyGOTTuvCbvxsJ-82" style="edgeStyle=orthogonalEdgeStyle;rounded=0;orthogonalLoop=1;jettySize=auto;html=1;exitX=0.5;exitY=1;exitDx=0;exitDy=0;entryX=0.5;entryY=0;entryDx=0;entryDy=0;" edge="1" parent="1" source="8WFRXQXyGOTTuvCbvxsJ-73" target="8WFRXQXyGOTTuvCbvxsJ-81">
          <mxGeometry relative="1" as="geometry" />
        </mxCell>
        <mxCell id="8WFRXQXyGOTTuvCbvxsJ-73" value="&lt;font style=&quot;font-size: 20px;&quot;&gt;获取电影票信息&lt;/font&gt;" style="rounded=0;whiteSpace=wrap;html=1;" vertex="1" parent="1">
          <mxGeometry x="715" y="110" width="150" height="60" as="geometry" />
        </mxCell>
        <mxCell id="8WFRXQXyGOTTuvCbvxsJ-91" style="edgeStyle=orthogonalEdgeStyle;rounded=0;orthogonalLoop=1;jettySize=auto;html=1;exitX=0.5;exitY=1;exitDx=0;exitDy=0;entryX=0.5;entryY=0;entryDx=0;entryDy=0;" edge="1" parent="1" source="8WFRXQXyGOTTuvCbvxsJ-74" target="8WFRXQXyGOTTuvCbvxsJ-89">
          <mxGeometry relative="1" as="geometry" />
        </mxCell>
        <mxCell id="8WFRXQXyGOTTuvCbvxsJ-92" style="edgeStyle=orthogonalEdgeStyle;rounded=0;orthogonalLoop=1;jettySize=auto;html=1;exitX=1;exitY=0.5;exitDx=0;exitDy=0;entryX=0.5;entryY=0;entryDx=0;entryDy=0;" edge="1" parent="1" source="8WFRXQXyGOTTuvCbvxsJ-74" target="8WFRXQXyGOTTuvCbvxsJ-90">
          <mxGeometry relative="1" as="geometry" />
        </mxCell>
        <mxCell id="8WFRXQXyGOTTuvCbvxsJ-74" value="&lt;font style=&quot;font-size: 20px;&quot;&gt;生成签名&lt;/font&gt;" style="ellipse;whiteSpace=wrap;html=1;" vertex="1" parent="1">
          <mxGeometry x="1111" y="-10" width="120" height="80" as="geometry" />
        </mxCell>
        <mxCell id="8WFRXQXyGOTTuvCbvxsJ-81" value="&lt;font style=&quot;font-size: 20px;&quot;&gt;校验签名&lt;/font&gt;" style="ellipse;whiteSpace=wrap;html=1;aspect=fixed;" vertex="1" parent="1">
          <mxGeometry x="740" y="220" width="100" height="100" as="geometry" />
        </mxCell>
        <mxCell id="8WFRXQXyGOTTuvCbvxsJ-84" style="edgeStyle=orthogonalEdgeStyle;rounded=0;orthogonalLoop=1;jettySize=auto;html=1;exitX=0.5;exitY=1;exitDx=0;exitDy=0;entryX=0.5;entryY=0;entryDx=0;entryDy=0;" edge="1" parent="1" source="8WFRXQXyGOTTuvCbvxsJ-83" target="8WFRXQXyGOTTuvCbvxsJ-74">
          <mxGeometry relative="1" as="geometry" />
        </mxCell>
        <mxCell id="8WFRXQXyGOTTuvCbvxsJ-83" value="&lt;font style=&quot;font-size: 20px;&quot;&gt;下游调用支付接口&lt;/font&gt;" style="ellipse;whiteSpace=wrap;html=1;" vertex="1" parent="1">
          <mxGeometry x="1210" y="-190" width="229" height="80" as="geometry" />
        </mxCell>
        <mxCell id="8WFRXQXyGOTTuvCbvxsJ-87" style="edgeStyle=orthogonalEdgeStyle;rounded=0;orthogonalLoop=1;jettySize=auto;html=1;exitX=0.5;exitY=1;exitDx=0;exitDy=0;entryX=0.5;entryY=0;entryDx=0;entryDy=0;" edge="1" parent="1" source="8WFRXQXyGOTTuvCbvxsJ-86" target="8WFRXQXyGOTTuvCbvxsJ-74">
          <mxGeometry relative="1" as="geometry" />
        </mxCell>
        <mxCell id="8WFRXQXyGOTTuvCbvxsJ-86" value="&lt;font style=&quot;font-size: 20px;&quot;&gt;下游调用其他接口&lt;/font&gt;" style="ellipse;whiteSpace=wrap;html=1;" vertex="1" parent="1">
          <mxGeometry x="1524" y="-190" width="230" height="80" as="geometry" />
        </mxCell>
        <mxCell id="8WFRXQXyGOTTuvCbvxsJ-95" style="edgeStyle=orthogonalEdgeStyle;rounded=0;orthogonalLoop=1;jettySize=auto;html=1;exitX=0.5;exitY=1;exitDx=0;exitDy=0;entryX=0.5;entryY=0;entryDx=0;entryDy=0;" edge="1" parent="1" source="8WFRXQXyGOTTuvCbvxsJ-89" target="8WFRXQXyGOTTuvCbvxsJ-93">
          <mxGeometry relative="1" as="geometry" />
        </mxCell>
        <mxCell id="8WFRXQXyGOTTuvCbvxsJ-89" value="&lt;font style=&quot;font-size: 20px;&quot;&gt;支付&lt;/font&gt;" style="rounded=0;whiteSpace=wrap;html=1;" vertex="1" parent="1">
          <mxGeometry x="1096" y="110" width="150" height="60" as="geometry" />
        </mxCell>
        <mxCell id="8WFRXQXyGOTTuvCbvxsJ-96" style="edgeStyle=orthogonalEdgeStyle;rounded=0;orthogonalLoop=1;jettySize=auto;html=1;exitX=0.5;exitY=1;exitDx=0;exitDy=0;entryX=0.5;entryY=0;entryDx=0;entryDy=0;" edge="1" parent="1" source="8WFRXQXyGOTTuvCbvxsJ-90" target="8WFRXQXyGOTTuvCbvxsJ-94">
          <mxGeometry relative="1" as="geometry" />
        </mxCell>
        <mxCell id="8WFRXQXyGOTTuvCbvxsJ-90" value="&lt;font style=&quot;font-size: 20px;&quot;&gt;其他接口&lt;/font&gt;" style="rounded=0;whiteSpace=wrap;html=1;" vertex="1" parent="1">
          <mxGeometry x="1451" y="110" width="150" height="60" as="geometry" />
        </mxCell>
        <mxCell id="8WFRXQXyGOTTuvCbvxsJ-93" value="&lt;font style=&quot;font-size: 20px;&quot;&gt;校验签名&lt;/font&gt;" style="ellipse;whiteSpace=wrap;html=1;aspect=fixed;" vertex="1" parent="1">
          <mxGeometry x="1121" y="220" width="100" height="100" as="geometry" />
        </mxCell>
        <mxCell id="8WFRXQXyGOTTuvCbvxsJ-94" value="&lt;font style=&quot;font-size: 20px;&quot;&gt;校验签名&lt;/font&gt;" style="ellipse;whiteSpace=wrap;html=1;aspect=fixed;" vertex="1" parent="1">
          <mxGeometry x="1476" y="220" width="100" height="100" as="geometry" />
        </mxCell>
        <mxCell id="8WFRXQXyGOTTuvCbvxsJ-98" style="edgeStyle=orthogonalEdgeStyle;rounded=0;orthogonalLoop=1;jettySize=auto;html=1;exitX=0.5;exitY=1;exitDx=0;exitDy=0;entryX=0.5;entryY=0;entryDx=0;entryDy=0;" edge="1" parent="1" source="8WFRXQXyGOTTuvCbvxsJ-97" target="8WFRXQXyGOTTuvCbvxsJ-74">
          <mxGeometry relative="1" as="geometry" />
        </mxCell>
        <mxCell id="8WFRXQXyGOTTuvCbvxsJ-97" value="&lt;font style=&quot;font-size: 20px;&quot;&gt;下游调用支付接口&lt;/font&gt;" style="ellipse;whiteSpace=wrap;html=1;" vertex="1" parent="1">
          <mxGeometry x="892" y="-190" width="229" height="80" as="geometry" />
        </mxCell>
      </root>
    </mxGraphModel>
  </diagram>
</mxfile>
